<svg xmlns="http://www.w3.org/2000/svg" height="1200" width="1600" version="1.1" xmlns:xlink="http://www.w3.org/1999/xlink" xmlns:svgjs="http://svgjs.com/svgjs"><rect fill="#000000" width="1600" height="1200"></rect><g><path d="M1480.06 309.02C1467.2 288.34 1451.09 269.83 1431.74 254.56 1366.94 203.59 1280.15 199.27 1201.05 200.35 1108.61 201.91 1017.01 211.89 926.85 232.08 806.04 259.01 691.83 306.25 566.69 313.23 497.09 317.07 427.49 310.1 358.01 313.71 288.4 317.31 216.76 333.18 162.66 376.7 127.08 405.31 100.51 444.98 87.89 488.61 68.66 555.21 81.28 627.82 110.13 690.81 156.17 791.91 233.23 892.29 333.6 944.46 451.89 1005.65 585.81 1031.01 717.32 1045.8 814.09 1056.74 912.18 1062.14 1008.83 1049.88 1126.28 1034.98 1242.76 991.82 1329.32 908.87 1413.22 828.69 1466.84 720.98 1497.97 610.39 1515.4 548.72 1526.58 484.17 1518.77 420.7 1513.6 381.39 1500.86 342.44 1480.06 309.02Z" fill="#0000000d" opacity="1" stroke-width="2" stroke="none"></path></g><g><path d="M1099.91 358.73C1105.77 368.16 1108.92 379.32 1108.92 391.18 1108.92 425.5 1081.04 453.38 1046.72 453.38 1012.4 453.38 984.52 425.5 984.52 391.18 984.52 356.87 1012.4 328.99 1046.72 328.99 1063.88 328.99 1079.46 335.85 1090.76 347.29" fill="#dffe00" opacity="1" stroke-width="2" stroke="none"></path><path d="M1099.91 358.73C1105.77 368.16 1108.92 379.32 1108.92 391.18 1108.92 425.5 1081.04 453.38 1046.72 453.38 1012.4 453.38 984.52 425.5 984.52 391.18 984.52 356.87 1012.4 328.99 1046.72 328.99 1063.88 328.99 1079.46 335.85 1090.76 347.29" stroke="#333333" stroke-width="2" stroke-linecap="round" stroke-linejoin="round" opacity="1" fill="none"></path><path d="M1108.06 329.84L1090.62 347.15 985.38 452.53" stroke="#333333" stroke-width="2" stroke-linecap="round" stroke-linejoin="round" opacity="1" fill="none"></path></g><g><path d="M513.48 893.18L265.88 893.51" stroke="#333333" stroke-width="2" stroke-linecap="round" stroke-linejoin="round" opacity="1" fill="none"></path></g><g><path d="M520.09 892.87H407.87L426.29 820.83 435.64 784.28 452.14 719.77H475.81L492.32 784.28 501.48 820.83 509.59 852.41 513.12 866.25 520.09 892.87Z" fill="#0000000d" stroke="#333333" stroke-width="2" stroke-linecap="round" stroke-linejoin="round" opacity="1"></path><path d="M501.48 820.83H426.29L435.64 784.28H492.32L501.48 820.83Z" fill="#dffe00" stroke="#333333" stroke-width="2" stroke-linecap="round" stroke-linejoin="round" opacity="1"></path></g><g><path d="M183.85 893.27H473.54" stroke="#333333" stroke-width="2" stroke-linecap="round" stroke-linejoin="round" opacity="1" fill="none"></path><path d="M490.28 893.27H682.93" stroke="#333333" stroke-width="2" stroke-linecap="round" stroke-linejoin="round" opacity="1" fill="none"></path><path d="M1136.11 938.74H1286.35C1298.87 938.74 1308.94 928.64 1308.94 916.06 1308.94 903.47 1298.87 893.37 1286.35 893.37" stroke="#333333" stroke-width="2" stroke-linecap="round" stroke-linejoin="round" opacity="1" fill="none"></path><path d="M951.16 970.4H1064.84C1082.2 970.4 1096.37 956.27 1096.37 938.74" stroke="#333333" stroke-width="2" stroke-linecap="round" stroke-linejoin="round" opacity="1" fill="none"></path><path d="M867.78 970.4H926.21" stroke="#333333" stroke-width="2" stroke-linecap="round" stroke-linejoin="round" opacity="1" fill="none"></path><path d="M1120.09 938.74H1022.12" stroke="#333333" stroke-width="2" stroke-linecap="round" stroke-linejoin="round" opacity="1" fill="none"></path><path d="M789.83 938.74H576.13" stroke="#333333" stroke-width="2" stroke-linecap="round" stroke-linejoin="round" opacity="1" fill="none"></path><path d="M557.44 938.74H530.74" stroke="#333333" stroke-width="2" stroke-linecap="round" stroke-linejoin="round" opacity="1" fill="none"></path><path d="M368.08 938.74H273.6" stroke="#333333" stroke-width="2" stroke-linecap="round" stroke-linejoin="round" opacity="1" fill="none"></path><path d="M385.54 938.74H494.8C503.74 938.74 510.82 945.96 510.82 954.83 510.82 963.8 503.63 970.91 494.8 970.91H439.66" stroke="#333333" stroke-width="2" stroke-linecap="round" stroke-linejoin="round" opacity="1" fill="none"></path><path d="M480.63 1003.19H425.49C416.55 1003.19 409.47 995.97 409.47 987.1 409.47 978.13 416.65 971.02 425.49 971.02" stroke="#333333" stroke-width="2" stroke-linecap="round" stroke-linejoin="round" opacity="1" fill="none"></path><path d="M496.34 1003.19H557.44" stroke="#333333" stroke-width="2" stroke-linecap="round" stroke-linejoin="round" opacity="1" fill="none"></path><path d="M576.13 1003.19H635.69" stroke="#333333" stroke-width="2" stroke-linecap="round" stroke-linejoin="round" opacity="1" fill="none"></path><path d="M699.98 893.27H1416.15" stroke="#333333" stroke-width="2" stroke-linecap="round" stroke-linejoin="round" opacity="1" fill="none"></path></g><g><path d="M478.24 353.59C506.93 353.59 530.19 330.33 530.19 301.64 530.19 272.95 506.93 249.69 478.24 249.69 449.55 249.69 426.3 272.95 426.3 301.64 426.3 330.33 449.55 353.59 478.24 353.59Z" fill="#dffe00" stroke="#333333" stroke-width="2" stroke-linecap="round" stroke-linejoin="round" opacity="1"></path></g><g><path d="M778.23 580.87H697.45L548.17 431.59C537.51 420.93 537.51 402.51 548.17 391.53 558.84 380.86 577.25 380.86 588.24 391.53L778.23 580.87Z" fill="#dffe00" stroke="#333333" stroke-width="2" stroke-linecap="round" stroke-linejoin="round" opacity="1"></path><path d="M757.23 576.99H672.25V893.32H915.88V576.99H783.4 757.23Z" fill="#dffe00" stroke="#333333" stroke-width="2" stroke-linecap="round" stroke-linejoin="round" opacity="1"></path><path d="M820.23 576.99V730.15C820.23 746.63 833.48 759.23 849.32 759.23 865.79 759.23 878.4 745.98 878.4 730.15V651.31C899.4 651.31 915.88 634.83 915.88 613.83V576.99H820.23Z" fill="#000000" stroke="#333333" stroke-width="2" stroke-linecap="round" stroke-linejoin="round" opacity="1"></path><path d="M672.25 701.1H785.66" stroke="#333333" stroke-width="2" stroke-linecap="round" stroke-linejoin="round" opacity="1" fill="none"></path><path d="M705.85 792.51H915.88" stroke="#333333" stroke-width="2" stroke-linecap="round" stroke-linejoin="round" opacity="1" fill="none"></path></g><g><path d="M1283.79 177.8H1233.58C1244.22 177.8 1252.66 169.16 1252.66 158.72 1252.66 148.07 1244.02 139.63 1233.58 139.63H1191.79 1158.25 1077.9C1056.81 139.63 1039.54 156.71 1039.54 178 1039.54 199.29 1056.61 216.37 1077.9 216.37H1158.25 1191.79 1283.79C1294.44 216.37 1302.87 207.73 1302.87 197.28 1303.08 186.24 1294.44 177.8 1283.79 177.8Z" fill="#dffe00" stroke="#333333" stroke-width="2" stroke-linecap="round" stroke-linejoin="round" opacity="1"></path><path d="M1233.58 177.8H1205.86" stroke="#333333" stroke-width="2" stroke-linecap="round" stroke-linejoin="round" opacity="1" fill="none"></path><path d="M1189.59 177.8H1174.12" stroke="#333333" stroke-width="2" stroke-linecap="round" stroke-linejoin="round" opacity="1" fill="none"></path></g><g><path d="M1084.58 797.11L1068.7 824.66 1084.58 861.71 1073.73 893.06H1250.29C1276.75 893.06 1298.33 871.48 1298.33 845.02 1298.33 818.55 1276.75 796.97 1250.29 796.97L1084.58 797.11Z" fill="#0000000d" stroke="#333333" stroke-width="2" stroke-linecap="round" stroke-linejoin="round" opacity="1"></path><path d="M1114.03 826.56H1184.2" stroke="#333333" stroke-width="2" stroke-linecap="round" stroke-linejoin="round" opacity="1" fill="none"></path><path d="M1203.6 826.56H1224.37" stroke="#333333" stroke-width="2" stroke-linecap="round" stroke-linejoin="round" opacity="1" fill="none"></path></g></svg>