<svg width="224" height="42" viewBox="0 0 224 42" fill="none" xmlns="http://www.w3.org/2000/svg">
<path fill-rule="evenodd" clip-rule="evenodd" d="M31.9213 3.17161C31.9213 2.07757 31.0344 1.19067 29.9403 1.19067H25.6056C24.5116 1.19067 23.6247 2.07757 23.6247 3.17161V7.46363C23.6247 8.55768 24.5116 9.44456 25.6056 9.44456H28.3298C29.4239 9.44456 30.3108 10.3315 30.3108 11.4255V38.828C30.3108 39.9221 31.1977 40.809 32.2917 40.809H36.6265C37.7205 40.809 38.6074 39.9221 38.6074 38.828V11.4251C38.6074 10.331 37.7205 9.44412 36.6265 9.44412H33.9023C32.8082 9.44412 31.9213 8.55723 31.9213 7.46319V3.17161ZM15.2719 3.17174C15.2719 2.07769 14.385 1.1908 13.291 1.1908H8.95628C7.86225 1.1908 6.97535 2.07769 6.97535 3.17174V7.46344C6.97535 8.55747 6.08845 9.44437 4.99442 9.44437H1.98093C0.886894 9.44437 0 10.3313 0 11.4253V38.8282C0 39.9222 0.886894 40.8091 1.98093 40.8091H6.31565C7.4097 40.8091 8.29658 39.9222 8.29658 38.8282V11.4256C8.29658 10.3316 9.18348 9.44469 10.2775 9.44469H13.291C14.385 9.44469 15.2719 8.55779 15.2719 7.46376V3.17174ZM23.5101 18.9716C23.5101 17.8777 22.6232 16.9908 21.5291 16.9908H17.1944C16.1003 16.9908 15.2134 17.8777 15.2134 18.9716V31.0459C15.2134 32.14 16.1003 33.0269 17.1944 33.0269H21.5291C22.6232 33.0269 23.5101 32.14 23.5101 31.0459V18.9716Z" fill="white"/>
<path d="M54.8762 10.1699H64.6768C68.8285 10.1699 71.0744 12.3544 71.0744 15.4995C71.1052 16.4824 70.8389 17.4518 70.3105 18.2801C69.7822 19.1085 69.0165 19.7574 68.1138 20.1414V20.2438C69.2812 20.5992 70.3 21.3296 71.0133 22.3225C71.7265 23.3154 72.0947 24.5159 72.0614 25.7392C72.0614 29.2547 69.6305 32.0195 65.2212 32.0195H54.8762V10.1699ZM64.7448 19.0492C66.3102 19.0492 67.4332 17.8887 67.4332 16.1236C67.4332 14.3585 66.3102 13.1979 64.7448 13.1979H58.5271V19.0492H64.7448ZM65.1872 29.0159C67.0589 29.0159 68.4201 27.5823 68.4201 25.5002C68.4201 23.4181 67.0589 22.0187 65.1872 22.0187H58.5271V29.0159H65.1872Z" fill="white"/>
<path d="M76.6213 12.7689H74.5697V9.47266H80.2187V32.0049H76.6116L76.6213 12.7689Z" fill="white"/>
<path d="M83.5586 23.9302C83.5586 18.981 87.2046 15.3289 92.241 15.3289C97.2775 15.3289 100.953 18.9469 100.953 23.9302C100.953 28.9135 97.3115 32.4973 92.241 32.4973C87.1706 32.4973 83.5586 28.8793 83.5586 23.9302ZM91.2883 29.2548H93.2327C95.4447 29.2548 97.3844 26.8997 97.3844 23.9302C97.3844 20.9606 95.4398 18.5665 93.2327 18.5665H91.2883C89.0763 18.5665 87.1366 21.0046 87.1366 23.9302C87.1366 26.8558 89.0763 29.2548 91.2883 29.2548Z" fill="white"/>
<path d="M103.296 23.896C103.296 18.8444 106.772 15.3289 111.774 15.3289C115.79 15.3289 118.954 17.4109 119.465 21.6676H115.96C115.62 19.5174 114.088 18.5616 112.523 18.5616H110.821C108.643 18.5616 106.874 20.951 106.874 23.9253C106.874 26.8997 108.643 29.3182 110.821 29.3182H112.523C113.393 29.3216 114.232 28.9973 114.875 28.4095C115.518 27.8216 115.917 27.013 115.994 26.1439H119.499C119.013 30.3422 115.824 32.5266 111.721 32.5266C106.733 32.4973 103.296 28.9476 103.296 23.896Z" fill="white"/>
<path d="M122.727 9.47266H126.3V21.9017H128.891L133.724 15.7921H137.807L131.852 23.3353L138.079 32.0049H133.792L128.585 24.837H126.3V32.0049H122.727V9.47266Z" fill="white"/>
<path d="M139.713 27.1386H143.15C143.319 28.5722 144.204 29.4938 146.066 29.4938H148.317C149.916 29.4938 150.665 28.6747 150.665 27.5824C150.665 26.4901 150.053 25.8417 148.59 25.6319L144.808 25.1443C141.609 24.769 140.179 22.8575 140.179 20.3658C140.179 17.0891 142.61 15.3142 146.951 15.3142C151.108 15.3142 153.626 16.9868 153.758 20.7071H150.321C150.15 19.3077 149.572 18.3179 147.802 18.3179H145.755C144.224 18.3179 143.51 19.137 143.51 20.1952C143.51 21.2533 144.19 21.9701 145.653 22.1749L149.47 22.6625C152.566 23.0379 153.996 24.7105 153.996 27.3045C153.996 30.6494 151.784 32.4926 146.884 32.4926C142.143 32.4974 139.844 30.6884 139.713 27.1386Z" fill="white"/>
<path d="M156.241 23.896C156.241 18.8444 159.712 15.3289 164.72 15.3289C168.735 15.3289 171.9 17.4109 172.41 21.6676H168.906C168.566 19.5174 167.034 18.5616 165.469 18.5616H163.766C161.584 18.5616 159.814 20.951 159.814 23.9253C159.814 26.8997 161.584 29.3182 163.766 29.3182H165.469C166.338 29.3216 167.178 28.9973 167.821 28.4095C168.463 27.8216 168.862 27.013 168.939 26.1439H172.445C171.959 30.3422 168.77 32.5266 164.667 32.5266C159.684 32.4973 156.241 28.9476 156.241 23.896Z" fill="white"/>
<path d="M174.714 23.9302C174.714 18.981 178.356 15.3289 183.393 15.3289C188.429 15.3289 192.109 18.9469 192.109 23.9302C192.109 28.9135 188.468 32.4973 183.393 32.4973C178.317 32.4973 174.714 28.8793 174.714 23.9302ZM182.44 29.2548H184.384C186.596 29.2548 188.541 26.8997 188.541 23.9302C188.541 20.9606 186.596 18.5665 184.384 18.5665H182.44C180.228 18.5665 178.289 21.0046 178.289 23.9302C178.289 26.8558 180.237 29.2548 182.449 29.2548H182.44Z" fill="white"/>
<path d="M195.075 26.0122V15.8115H198.647V25.4026C198.647 27.7579 199.839 29.1573 201.404 29.1573H203.349C205.016 29.1573 206.514 27.6214 206.514 25.4026V15.8115H210.091V32.0244H206.616V29.8058C205.643 31.4782 203.927 32.5022 201.307 32.5022C197.389 32.4973 195.075 30.2105 195.075 26.0122Z" fill="white"/>
<path d="M216.037 28.2308V18.9663H212.906V15.8116H216.037V11.2671H219.645V15.8116H223.864V18.9518H219.645V27.2118C219.645 28.2699 219.985 28.7819 221.141 28.7819H224V32.0244H220.111C217.496 32.0195 216.037 30.6542 216.037 28.2308Z" fill="white"/>
</svg>
