<svg width="223" height="34" viewBox="0 0 223 34" fill="none" xmlns="http://www.w3.org/2000/svg">
<path d="M20.1343 23.0154C20.1343 21.571 21.3204 20.4 22.7835 20.4H23.8432C25.3063 20.4 26.4924 21.571 26.4924 23.0154V24.0616C26.4924 25.506 25.3063 26.6769 23.8432 26.6769H22.7835C21.3204 26.6769 20.1343 25.506 20.1343 24.0616V23.0154Z" fill="white"/>
<path d="M22.7835 10.9846C21.3204 10.9846 20.1343 12.1556 20.1343 13.6V14.6462C20.1343 16.0906 21.3204 17.2615 22.7835 17.2615H23.8432C25.3063 17.2615 26.4924 16.0906 26.4924 14.6462V13.6C26.4924 12.1556 25.3063 10.9846 23.8432 10.9846H22.7835Z" fill="white"/>
<path fill-rule="evenodd" clip-rule="evenodd" d="M10.597 0C4.74442 0 0 4.68379 0 10.4615V23.5385C0 29.3162 4.74442 34 10.597 34H23.8432C29.6958 34 34.4402 29.3162 34.4402 23.5385V10.4615C34.4402 4.68379 29.6958 0 23.8432 0H10.597ZM23.8432 4.18462H10.597C7.08544 4.18462 4.23879 6.99489 4.23879 10.4615V23.5385C4.23879 27.0051 7.08544 29.8154 10.597 29.8154H23.8432C27.3547 29.8154 30.2013 27.0051 30.2013 23.5385V10.4615C30.2013 6.99489 27.3547 4.18462 23.8432 4.18462Z" fill="white"/>
<path d="M67.9756 25.5471C68.6973 24.4047 69.0675 23.0805 69.041 21.735C69.041 20.4907 68.762 19.4163 68.2104 18.5377C67.6134 17.6121 66.8028 16.8386 65.8448 16.2804C64.5964 15.5592 63.2761 14.9661 61.9049 14.5103C61.8031 14.4779 61.7128 14.4456 61.6356 14.4165L61.4337 14.3452C60.5341 14.0427 59.861 13.7984 59.4277 13.6188C59.0313 13.4661 58.6648 13.2471 58.3442 12.9716C58.2038 12.8506 58.0916 12.7013 58.0151 12.5338C57.9386 12.3663 57.8996 12.1845 57.9009 12.0007C57.8924 11.7276 57.9507 11.4565 58.0711 11.2104C58.1913 10.9642 58.37 10.7502 58.5921 10.5865C59.0304 10.2532 59.6591 10.0833 60.4585 10.0833C61.4446 10.092 62.4182 10.3014 63.3183 10.6982C64.1005 11.0285 64.829 11.4706 65.4803 12.0104L68.624 8.23387C67.5335 7.2754 66.287 6.50469 64.937 5.95401C63.4288 5.36745 61.8187 5.07777 60.1976 5.1013C58.3918 5.1013 56.8732 5.41521 55.6912 6.03493C54.5093 6.65464 53.6441 7.47176 53.0991 8.47334C52.5457 9.49438 52.2606 10.6359 52.2701 11.7936C52.2701 13.8291 52.9267 15.3906 54.2105 16.4374C55.6331 17.5622 57.2714 18.3927 59.027 18.8791C59.9298 19.127 60.8131 19.439 61.6701 19.8127C62.307 20.1121 62.7323 20.4114 62.9686 20.7253C63.2121 21.0535 63.3395 21.4514 63.3314 21.858C63.3382 22.1597 63.2664 22.4582 63.1227 22.7249C62.979 22.9914 62.7682 23.2172 62.5107 23.3806C61.9869 23.7366 61.2351 23.9096 60.2123 23.9096C58.1718 23.9096 56.1969 23.0472 54.3419 21.345L50.7992 24.9743C52.0123 26.2256 53.4623 27.2305 55.0674 27.9322C56.7407 28.6482 58.5474 29.012 60.3716 29.0001C62.1051 29.0001 63.6548 28.6959 64.9567 28.094C66.1904 27.5486 67.2385 26.6644 67.9756 25.5471Z" fill="white"/>
<path d="M143.773 23.1187L141.18 21.0703C140.336 22.1699 139.165 22.983 137.83 23.3966C136.496 23.8101 135.064 23.8034 133.733 23.3777C132.403 22.9518 131.239 22.1279 130.406 21.0205C129.572 19.9131 129.11 18.5772 129.083 17.1986C129.055 15.82 129.464 14.4672 130.252 13.3283C131.04 12.1894 132.17 11.3209 133.482 10.8438C134.794 10.3666 136.225 10.3043 137.575 10.6658C138.926 11.0271 140.128 11.7941 141.015 12.8602L145.236 9.52864C143.647 7.59896 141.489 6.20438 139.06 5.53821C136.631 4.87204 134.051 4.9673 131.68 5.81079C129.308 6.65428 127.262 8.20418 125.824 10.2456C124.386 12.2871 123.628 14.7188 123.656 17.2038C123.683 19.6887 124.494 22.1037 125.977 24.1139C127.46 26.124 129.54 27.6296 131.929 28.4222C134.319 29.2146 136.9 29.2546 139.313 28.5366C141.727 27.8185 143.854 26.378 145.4 24.4148L143.773 23.1187Z" fill="white"/>
<path fill-rule="evenodd" clip-rule="evenodd" d="M94.4375 12.7615C94.4375 14.344 94.1086 15.7533 93.4525 16.9507C92.8042 18.1364 91.8157 19.1074 90.6103 19.7418C89.3662 20.4052 87.8706 20.7418 86.165 20.7418H82.0904V28.1444H76.4662V5.09998H86.0862C87.7587 5.09998 89.2431 5.43493 90.4993 6.09347C91.7107 6.71458 92.7189 7.66092 93.4077 8.82315C94.1017 10.0216 94.4573 11.3816 94.4375 12.7615ZM87.2619 15.4038C87.7329 15.1568 88.1272 14.7875 88.401 14.3359C88.6791 13.875 88.8229 13.3478 88.8177 12.8117C88.8255 12.3008 88.6782 11.7993 88.3941 11.3716C88.1117 10.9541 87.7199 10.6189 87.2619 10.4007C86.7694 10.1675 86.2287 10.05 85.6824 10.0577H82.0904V15.7857H85.6659C86.2218 15.7917 86.7702 15.6604 87.2619 15.4038Z" fill="white"/>
<path d="M158.243 18.7661H167.027V14.2113H158.243V10.0577H169.473V5.09998H152.618V28.1444H169.727V23.1867H158.243V18.7661Z" fill="white"/>
<path d="M186.6 5.09998H192.224V28.1444H186.6V5.09998Z" fill="white"/>
<path fill-rule="evenodd" clip-rule="evenodd" d="M220.311 22.4834C221.379 20.7079 221.942 18.6816 221.94 16.6176C221.939 14.5537 221.374 12.5282 220.303 10.7541C219.216 9.00768 217.676 7.57799 215.842 6.61187C213.928 5.59935 211.786 5.07952 209.614 5.10059H200.872V28.145H209.666C211.829 28.1659 213.963 27.646 215.867 26.6338C217.698 25.6661 219.232 24.233 220.311 22.4834ZM215.409 19.8735C214.877 20.8161 214.089 21.5934 213.132 22.1177C212.134 22.6618 211.01 22.9406 209.869 22.9268H206.497V10.327H209.852C210.996 10.3117 212.124 10.5905 213.124 11.136C214.081 11.6622 214.872 12.439 215.409 13.3802C215.966 14.3694 216.249 15.4854 216.23 16.6164C216.249 17.754 215.966 18.8767 215.409 19.8735Z" fill="white"/>
<path fill-rule="evenodd" clip-rule="evenodd" d="M105.544 5.09998H110.558L119.525 28.1768H113.754L112.481 24.4925V24.4812H103.567V24.4925L102.294 28.1768H96.5254L105.544 5.09998ZM108.034 11.5641L107.954 11.7987L105.249 19.6269H110.813L108.117 11.7987L108.034 11.5641Z" fill="white"/>
</svg>
