<svg width="15" height="9" viewBox="0 0 15 9" fill="none" xmlns="http://www.w3.org/2000/svg">
<path id="Vector" d="M0.329385 8.28426C0.540353 8.49516 0.82645 8.61364 1.12476 8.61364C1.42307 8.61364 1.70917 8.49516 1.92013 8.28426L7.48888 2.71551L13.0576 8.28426C13.2698 8.48919 13.554 8.60258 13.849 8.60002C14.1439 8.59745 14.4261 8.47914 14.6347 8.27056C14.8433 8.06197 14.9616 7.77981 14.9641 7.48484C14.9667 7.18986 14.8533 6.90569 14.6484 6.69351L8.28426 0.329385C8.07329 0.11848 7.78719 0 7.48888 0C7.19058 0 6.90448 0.11848 6.69351 0.329385L0.329385 6.69351C0.11848 6.90448 0 7.19058 0 7.48888C0 7.78719 0.11848 8.07329 0.329385 8.28426Z" fill="#F8F8F8"/>
</svg>
